PathFileType	4	(X/Y/Z)	D:\Share\Shared_Data\Ergonomics\Sit To Stand Pertubation\S2\Perturbed.trc
DataRate	CameraRate	NumFrames	NumMarkers	Units	OrigDataRate	OrigDataStartFrame	OrigNumFrames	
100	100	13	18	m	100	18680	191
Frame#	Time	R_Toe			R_ASIS			R_Pelvis			V_Sacral			L_Pelvis			L_ASIS			Clavical			R_Acromium			L_Acromium			Sternum			Torso			R_Thigh_Med			R_Thigh_Lat			R_Thigh			R_Shank_Med			R_Shank_Lat			R_Shank			R_Heel			
		X1	Y1	Z1	X2	Y2	Z2	X3	Y3	Z3	X4	Y4	Z4	X5	Y5	Z5	X6	Y6	Z6	X7	Y7	Z7	X8	Y8	Z8	X9	Y9	Z9	X10	Y10	Z10	X11	Y11	Z11	X12	Y12	Z12	X13	Y13	Z13	X14	Y14	Z14	X15	Y15	Z15	X16	Y16	Z16	X17	Y17	Z17	X18	Y18	Z18	

18680	186.79	0.41579434	0.065804176	0.13669502	0.27398364	0.98786017	0.12723869	0.20368546	1.0099883	0.17395212	0.059583397	1.0314379	0.015423759	0.15880055	1.0256541	-0.16804594	0.25368256	1.0082979	-0.14311208	0.42418027	1.3793105	-0.0091925755	0.34961514	1.4350691	0.19856776	0.32928903	1.4486566	-0.18975113	0.41411887	1.2167004	-0.012858297	0.41614993	1.3423142	-0.12353578	0.35109744	0.49569986	0.087639336	0.33713339	0.51790839	0.18256589	0.35926831	0.69672906	0.15603226	0.28199957	0.10770388	0.096123116	0.25984677	0.10028828	0.18812073	0.30467645	0.36843231	0.20916759	0.1785233	0.057790428	0.13549112
18681	186.8	0.41579449	0.065767532	0.13674539	0.27768091	0.99081311	0.12709208	0.20705203	1.0120309	0.17363054	0.063122795	1.0331969	0.014947822	0.16231396	1.027699	-0.16839723	0.2574794	1.0112696	-0.14339474	0.4235665	1.3845044	-0.0092589979	0.34806409	1.4393344	0.19850198	0.32794843	1.4527783	-0.18989005	0.41553735	1.2216508	-0.013001326	0.41599249	1.3473427	-0.12364193	0.34948755	0.49586902	0.087347092	0.33547998	0.51824988	0.18219713	0.3598754	0.69641724	0.15589819	0.28199844	0.10766898	0.096058266	0.2597583	0.1003321	0.18794226	0.30325885	0.36876987	0.20891209	0.17856541	0.057988632	0.13549942
18682	186.81	0.41579907	0.065731247	0.13678864	0.28138925	0.99362048	0.1269462	0.21043425	1.0139333	0.17332681	0.066642578	1.0347814	0.014512349	0.16578789	1.0295642	-0.16874915	0.2611907	1.0140781	-0.14367857	0.42287589	1.3895188	-0.0093273773	0.34643311	1.44341	0.19843001	0.32654797	1.4566859	-0.1900497	0.4169303	1.2264462	-0.013143886	0.41575818	1.3522003	-0.12375777	0.34792184	0.49601996	0.087015587	0.33389633	0.51856152	0.18179311	0.36051962	0.69606024	0.15577757	0.28199857	0.10763292	0.095993271	0.25967981	0.10037471	0.18776878	0.30191321	0.36909311	0.20863179	0.17861276	0.058110672	0.13548149
18683	186.82	0.41580807	0.065695358	0.13682375	0.28512146	0.99628943	0.12680435	0.21383357	1.0157069	0.17304478	0.070140945	1.0361993	0.014124104	0.16921811	1.0312538	-0.16909267	0.2648157	1.0167284	-0.14396191	0.42211612	1.3943575	-0.0093968449	0.34472632	1.4473013	0.19835318	0.32507129	1.4603787	-0.19022418	0.41827444	1.231092	-0.013287967	0.41545102	1.3568895	-0.12388639	0.34638834	0.49615402	0.086642212	0.33237805	0.51884589	0.18135568	0.36120581	0.69566711	0.15566476	0.28199881	0.10759503	0.095927505	0.25961075	0.1004175	0.18759999	0.30063077	0.36940387	0.20832799	0.17866652	0.058154785	0.13543765
18684	186.83	0.41582074	0.065660385	0.13685057	0.28889285	0.99882666	0.12667127	0.21725043	1.0173615	0.17278729	0.073615471	1.0374609	0.013787636	0.17260188	1.0327743	-0.16941309	0.26836273	1.0192278	-0.14424228	0.4212962	1.3990229	-0.0094687834	0.34295007	1.4510133	0.19827124	0.32350342	1.4638558	-0.19040791	0.41954132	1.2355911	-0.013438614	0.41507736	1.3614117	-0.12403096	0.34488083	0.49627313	0.086230309	0.33092035	0.51910437	0.18088887	0.36194037	0.69524835	0.15555362	0.28199847	0.10755606	0.095863075	0.25955109	0.10046049	0.18744075	0.29940237	0.36970261	0.20800551	0.17872519	0.058134277	0.13537425
18685	186.84	0.41583591	0.065626945	0.13687053	0.29272009	1.001239	0.12655186	0.2206833	1.0189042	0.17255719	0.077064827	1.0385768	0.013503192	0.1759386	1.0341343	-0.16969273	0.27184225	1.0215856	-0.14451768	0.42042432	1.4035155	-0.0095462446	0.34111292	1.4545514	0.19818312	0.32183759	1.467116	-0.19059726	0.42071347	1.2399434	-0.013602374	0.4146449	1.3657673	-0.12419418	0.34339792	0.49637909	0.085788773	0.32951855	0.51933636	0.18039746	0.36272882	0.69481372	0.15543874	0.28199731	0.10751781	0.095804283	0.25950153	0.10050264	0.18730011	0.29822131	0.36998895	0.20767053	0.17878555	0.058070335	0.1353013
18686	186.85	0.41585223	0.065595512	0.13688617	0.29661655	1.0035322	0.12644971	0.22412862	1.0203386	0.17235796	0.080488754	1.0395583	0.013267644	0.1792292	1.0353441	-0.16991797	0.27526349	1.0238122	-0.14478709	0.41950708	1.4078344	-0.0096333408	0.33922562	1.4579197	0.19808777	0.3200752	1.4701569	-0.19079079	0.42179178	1.2441482	-0.013785475	0.41416144	1.3699563	-0.12437755	0.34194064	0.49647198	0.085329117	0.32816959	0.51954016	0.17988594	0.36357147	0.69436896	0.15531671	0.28199539	0.10748277	0.095756287	0.25946265	0.10054224	0.18718733	0.29708539	0.37026193	0.20732864	0.17884276	0.057989689	0.13523158
18687	186.86	0.41586835	0.065566513	0.13689963	0.30058234	1.0057105	0.12636563	0.22758057	1.0216651	0.17219284	0.083886642	1.0404155	0.013076823	0.1824747	1.0364166	-0.17008241	0.27863376	1.0259187	-0.14505075	0.41855063	1.4119784	-0.0097342787	0.33730179	1.4611232	0.19798477	0.31822406	1.472979	-0.19098875	0.42279047	1.2482034	-0.013992628	0.41363361	1.3739768	-0.12458123	0.34051089	0.49654904	0.084860771	0.32687286	0.51971326	0.17935735	0.36446179	0.69391492	0.15518671	0.28199326	0.10745346	0.095723312	0.25943411	0.10057771	0.18710797	0.29599643	0.37052066	0.20698354	0.17889194	0.057916134	0.1351763
18688	186.87	0.41588321	0.065540413	0.13691212	0.30459067	1.0077748	0.12629656	0.23103162	1.0228828	0.17206287	0.087256607	1.0411555	0.01292584	0.18567621	1.0373676	-0.170186	0.28195776	1.027916	-0.14530981	0.41756183	1.4159463	-0.0098516426	0.33535718	1.464166	0.19787445	0.31629712	1.4755863	-0.19119052	0.42372849	1.2521072	-0.014226028	0.4130657	1.3778276	-0.12480402	0.33911163	0.49660345	0.084387558	0.32563104	0.51985181	0.17881284	0.36538782	0.69344794	0.15505054	0.28199167	0.10743166	0.095707001	0.25941409	0.10060829	0.18706197	0.29495892	0.37076422	0.20663664	0.1789301	0.057861954	0.13514069
18689	186.88	0.4158963	0.065517494	0.13692404	0.3085842	1.0097226	0.12623547	0.23447301	1.0239896	0.17196611	0.090596001	1.0417832	0.01280834	0.18883537	1.0382131	-0.17023592	0.2852388	1.0298131	-0.14556586	0.41654794	1.419738	-0.0099855175	0.33340805	1.4670533	0.19775844	0.31431085	1.477989	-0.19139229	0.42462247	1.2558563	-0.014484149	0.41245975	1.3815057	-0.12504311	0.33774957	0.49662479	0.083907745	0.32445001	0.51995166	0.17825151	0.36633368	0.69296051	0.15491135	0.28199103	0.10741776	0.095705429	0.25940033	0.10063436	0.1870439	0.29397876	0.37099216	0.20628677	0.17895628	0.057829174	0.13512442
18690	186.89	0.41590759	0.06549762	0.13693517	0.3124953	1.0115488	0.1261739	0.2378951	1.0249846	0.1718987	0.093902519	1.0423011	0.01271641	0.19195511	1.0389672	-0.17024548	0.28848053	1.0316155	-0.1458208	0.41551556	1.4233533	-0.010133986	0.33146967	1.4697894	0.19764035	0.31228439	1.4802034	-0.19158783	0.42548218	1.2594485	-0.014761064	0.41181689	1.3850082	-0.12529384	0.33643994	0.49660223	0.083417686	0.3233382	0.52000873	0.17767065	0.36728586	0.69244189	0.15477135	0.28199207	0.1074108	0.095713303	0.25939059	0.10065715	0.18704454	0.29306268	0.37120398	0.20592981	0.17897142	0.057814869	0.13512389
18691	186.9	0.41591763	0.065480545	0.13694385	0.31627847	1.0132506	0.12610545	0.24128847	1.0258689	0.17185622	0.09717524	1.0427108	0.012640976	0.19503975	1.0396379	-0.17023068	0.29168744	1.0333251	-0.14607675	0.41446945	1.4267906	-0.010293702	0.32955453	1.4723787	0.19752626	0.3102366	1.4822468	-0.19177081	0.42630939	1.2628826	-0.015047492	0.41113831	1.3883333	-0.12554977	0.33520477	0.49652863	0.082915459	0.32230472	0.52002069	0.17706465	0.36824335	0.69188196	0.15462892	0.2819967	0.10740882	0.095722496	0.25938364	0.10067863	0.18705257	0.29221765	0.37139987	0.2055596	0.17897807	0.057814751	0.13513402
18692	186.91	0.41592734	0.065465889	0.13694672	0.31992215	1.0148294	0.12602775	0.2446456	1.0266464	0.17183463	0.10041506	1.0430131	0.012572733	0.19809392	1.040228	-0.17020834	0.29486401	1.0349398	-0.14633516	0.41341229	1.4300485	-0.010460163	0.32767203	1.4748242	0.19742334	0.30818335	1.4841316	-0.19193552	0.42709961	1.2661581	-0.015332496	0.41042612	1.391479	-0.12580326	0.33406558	0.49640314	0.082402161	0.32135721	0.51998718	0.17642474	0.36921811	0.69127448	0.15447751	0.28200815	0.10740895	0.095722755	0.25937952	0.10070124	0.18705615	0.29144897	0.37158014	0.20516887	0.17897978	0.057824532	0.1351487
